<svg id="svg" version="1.1" xmlns="http://www.w3.org/2000/svg" xmlns:xlink="http://www.w3.org/1999/xlink" width="400" height="400" viewBox="0, 0, 400,400"><g id="svgg"><path id="path0" d="M98.124 257.983 C 94.782 259.935,91.092 262.061,89.924 262.707 C 88.756 263.354,86.810 264.474,85.600 265.197 C 84.390 265.920,82.815 266.847,82.100 267.256 C 81.385 267.665,80.170 268.360,79.400 268.800 C 78.630 269.240,77.415 269.940,76.700 270.355 C 74.887 271.407,64.979 277.077,62.800 278.309 C 61.810 278.869,60.329 279.749,59.508 280.264 C 58.687 280.779,57.905 281.200,57.770 281.200 C 57.634 281.200,57.046 281.533,56.462 281.939 C 55.878 282.345,54.410 283.221,53.200 283.885 C 49.352 285.996,43.814 289.250,43.420 289.632 C 43.211 289.834,42.720 290.000,42.329 290.000 C 41.656 290.000,41.966 291.606,42.792 292.400 C 43.183 292.776,44.449 294.999,44.671 295.700 C 44.793 296.085,45.030 296.400,45.198 296.400 C 45.366 296.400,45.727 296.940,46.000 297.600 C 46.273 298.260,46.655 298.800,46.849 298.800 C 47.042 298.800,47.200 299.070,47.200 299.400 C 47.200 299.730,47.380 300.000,47.600 300.000 C 47.820 300.000,48.000 300.270,48.000 300.600 C 48.000 300.930,48.180 301.200,48.400 301.200 C 48.620 301.200,48.800 301.442,48.800 301.738 C 48.800 302.034,49.160 302.602,49.600 303.000 C 50.040 303.398,50.400 303.977,50.400 304.286 C 50.400 304.594,50.580 304.736,50.800 304.600 C 51.020 304.464,51.200 304.642,51.200 304.995 C 51.200 305.348,51.605 306.064,52.100 306.587 C 54.078 308.677,55.200 310.029,55.200 310.323 C 55.200 310.493,55.920 311.428,56.800 312.400 C 57.680 313.372,58.400 314.390,58.400 314.661 C 58.400 314.933,58.800 315.435,59.289 315.777 C 59.778 316.120,60.029 316.400,59.847 316.400 C 59.664 316.400,60.074 316.922,60.758 317.560 C 61.441 318.199,62.000 318.848,62.000 319.003 C 62.000 319.518,63.907 321.560,64.156 321.311 C 64.290 321.177,64.400 321.285,64.400 321.552 C 64.400 321.818,64.850 322.486,65.400 323.036 C 65.950 323.586,66.400 323.939,66.400 323.821 C 66.400 323.702,68.560 325.778,71.200 328.433 C 73.840 331.088,76.000 333.427,76.000 333.630 C 76.000 333.834,76.281 334.000,76.624 334.000 C 76.967 334.000,77.136 334.180,77.000 334.400 C 76.864 334.620,77.044 334.800,77.400 334.800 C 77.756 334.800,77.936 334.980,77.800 335.200 C 77.664 335.420,77.790 335.600,78.080 335.600 C 78.370 335.600,78.832 335.960,79.107 336.400 C 79.382 336.840,79.813 337.200,80.065 337.200 C 80.318 337.200,81.177 337.887,81.976 338.727 C 82.775 339.566,84.051 340.601,84.811 341.027 C 85.572 341.452,86.673 342.295,87.258 342.900 C 87.842 343.505,88.492 344.000,88.701 344.000 C 88.910 344.000,89.646 344.539,90.335 345.198 C 91.025 345.857,91.809 346.442,92.079 346.498 C 92.746 346.637,93.549 347.346,93.372 347.640 C 93.292 347.772,93.716 348.130,94.314 348.437 C 94.911 348.744,95.691 349.311,96.047 349.697 C 96.403 350.084,96.948 350.400,97.259 350.400 C 97.569 350.400,98.083 350.760,98.400 351.200 C 98.717 351.640,99.257 352.000,99.600 352.000 C 99.943 352.000,100.483 352.360,100.800 352.800 C 101.117 353.240,101.697 353.600,102.088 353.600 C 102.480 353.600,102.800 353.758,102.800 353.951 C 102.800 354.145,103.340 354.527,104.000 354.800 C 104.660 355.073,105.200 355.455,105.200 355.649 C 105.200 355.842,105.549 356.000,105.976 356.000 C 106.403 356.000,106.861 356.175,106.993 356.389 C 107.126 356.603,107.901 357.089,108.717 357.468 C 109.533 357.848,110.290 358.258,110.400 358.379 C 110.750 358.766,112.974 360.041,113.700 360.271 C 114.085 360.393,114.400 360.663,114.400 360.870 C 114.400 361.078,114.565 361.145,114.768 361.020 C 114.970 360.895,115.407 361.064,115.739 361.396 C 116.071 361.728,116.626 362.000,116.971 362.000 C 117.317 362.000,117.600 362.180,117.600 362.400 C 117.600 362.620,117.960 362.800,118.400 362.800 C 118.840 362.800,119.200 362.980,119.200 363.200 C 119.200 363.420,119.560 363.600,120.000 363.600 C 120.440 363.600,120.800 363.780,120.800 364.000 C 120.800 364.220,121.160 364.400,121.600 364.400 C 122.040 364.400,122.400 364.580,122.400 364.800 C 122.400 365.020,122.672 365.200,123.005 365.200 C 123.338 365.200,124.013 365.408,124.505 365.662 C 126.390 366.636,126.808 366.800,127.418 366.800 C 127.764 366.800,127.936 366.980,127.800 367.200 C 127.664 367.420,127.913 367.600,128.353 367.600 C 128.793 367.600,129.264 367.780,129.400 368.000 C 129.536 368.220,130.087 368.400,130.624 368.400 C 131.161 368.400,131.600 368.580,131.600 368.800 C 131.600 369.020,132.050 369.200,132.600 369.200 C 133.150 369.200,133.600 369.380,133.600 369.600 C 133.600 369.820,134.050 370.000,134.600 370.000 C 135.150 370.000,135.600 370.180,135.600 370.400 C 135.600 370.620,136.140 370.800,136.800 370.800 C 137.460 370.800,138.000 370.980,138.000 371.200 C 138.000 371.420,138.450 371.600,139.000 371.600 C 139.550 371.600,140.000 371.780,140.000 372.000 C 140.000 372.220,140.353 372.400,140.785 372.400 C 141.217 372.400,142.522 372.732,143.685 373.137 C 147.898 374.606,148.802 374.846,149.198 374.601 C 149.419 374.465,149.600 374.543,149.600 374.776 C 149.600 375.009,150.320 375.200,151.200 375.200 C 152.080 375.200,152.800 375.380,152.800 375.600 C 152.800 375.820,153.329 376.000,153.976 376.000 C 154.623 376.000,155.264 376.180,155.400 376.400 C 155.536 376.620,156.346 376.800,157.200 376.800 C 158.054 376.800,158.864 376.980,159.000 377.200 C 159.136 377.420,159.867 377.600,160.624 377.600 C 161.381 377.600,162.000 377.780,162.000 378.000 C 162.000 378.220,162.900 378.400,164.000 378.400 C 165.100 378.400,166.000 378.549,166.000 378.732 C 166.000 378.914,167.035 379.104,168.300 379.154 C 169.565 379.204,170.660 379.415,170.733 379.622 C 170.807 379.830,172.112 380.000,173.633 380.000 C 175.211 380.000,176.400 380.172,176.400 380.400 C 176.400 380.635,177.800 380.800,179.800 380.800 C 181.704 380.800,183.200 380.969,183.200 381.184 C 183.200 381.423,189.701 381.577,200.400 381.592 C 211.834 381.607,217.600 381.479,217.600 381.208 C 217.600 380.963,218.957 380.800,221.000 380.800 C 223.000 380.800,224.400 380.635,224.400 380.400 C 224.400 380.176,225.507 380.000,226.920 380.000 C 228.306 380.000,229.611 379.830,229.820 379.623 C 230.029 379.416,231.235 379.205,232.500 379.155 C 233.765 379.104,234.800 378.914,234.800 378.732 C 234.800 378.549,235.700 378.400,236.800 378.400 C 237.900 378.400,238.800 378.220,238.800 378.000 C 238.800 377.780,239.430 377.600,240.200 377.600 C 240.970 377.600,241.600 377.420,241.600 377.200 C 241.600 376.980,242.399 376.800,243.376 376.800 C 244.353 376.800,245.264 376.620,245.400 376.400 C 245.536 376.180,246.256 376.000,247.000 376.000 C 247.744 376.000,248.452 375.840,248.573 375.644 C 248.694 375.449,249.469 375.180,250.296 375.048 C 251.123 374.916,252.070 374.758,252.400 374.695 C 253.542 374.480,257.803 373.132,258.495 372.767 C 258.877 372.565,259.552 372.400,259.995 372.400 C 260.438 372.400,260.800 372.220,260.800 372.000 C 260.800 371.780,261.250 371.600,261.800 371.600 C 262.350 371.600,262.800 371.420,262.800 371.200 C 262.800 370.980,263.340 370.800,264.000 370.800 C 264.660 370.800,265.200 370.620,265.200 370.400 C 265.200 370.180,265.639 370.000,266.176 370.000 C 266.713 370.000,267.264 369.820,267.400 369.600 C 267.536 369.380,267.997 369.200,268.424 369.200 C 268.851 369.200,269.200 369.020,269.200 368.800 C 269.200 368.580,269.639 368.400,270.176 368.400 C 270.713 368.400,271.264 368.220,271.400 368.000 C 271.536 367.780,272.007 367.600,272.447 367.600 C 272.887 367.600,273.136 367.420,273.000 367.200 C 272.864 366.980,273.113 366.800,273.553 366.800 C 273.993 366.800,274.464 366.620,274.600 366.400 C 274.736 366.180,275.287 366.000,275.824 366.000 C 276.361 366.000,276.801 365.865,276.803 365.700 C 276.807 365.341,278.744 364.400,279.480 364.400 C 279.766 364.400,280.000 364.220,280.000 364.000 C 280.000 363.780,280.360 363.600,280.800 363.600 C 281.240 363.600,281.600 363.420,281.600 363.200 C 281.600 362.980,281.960 362.800,282.400 362.800 C 282.840 362.800,283.200 362.620,283.200 362.400 C 283.200 362.180,283.560 362.000,284.000 362.000 C 284.440 362.000,284.800 361.820,284.800 361.600 C 284.800 361.380,285.160 361.200,285.600 361.200 C 286.040 361.200,286.400 361.020,286.400 360.800 C 286.400 360.580,286.760 360.400,287.200 360.400 C 287.640 360.400,288.000 360.220,288.000 360.000 C 288.000 359.780,288.281 359.600,288.624 359.600 C 288.967 359.600,289.136 359.420,289.000 359.200 C 288.864 358.980,289.078 358.794,289.476 358.787 C 291.097 358.759,292.462 355.600,290.854 355.600 C 290.712 355.600,290.342 355.015,290.032 354.300 C 289.723 353.585,288.959 352.248,288.335 351.328 C 287.711 350.408,287.200 349.550,287.200 349.421 C 287.200 349.291,286.480 348.000,285.600 346.552 C 284.720 345.103,284.000 343.862,284.000 343.792 C 284.000 343.723,283.161 342.256,282.137 340.533 C 281.112 338.810,279.764 336.441,279.141 335.268 C 278.519 334.096,277.686 332.656,277.290 332.068 C 276.895 331.481,276.308 330.460,275.986 329.800 C 275.665 329.140,275.311 328.510,275.201 328.400 C 275.090 328.290,274.758 327.770,274.462 327.245 C 274.167 326.720,273.598 325.709,273.199 324.998 C 272.800 324.288,271.737 322.494,270.837 321.012 C 269.937 319.531,269.200 318.262,269.200 318.194 C 269.200 318.125,267.670 315.433,265.800 312.212 C 263.930 308.990,262.400 306.184,262.400 305.977 C 262.400 305.770,262.220 305.600,262.000 305.600 C 261.780 305.600,261.600 305.428,261.600 305.218 C 261.600 305.007,261.035 303.882,260.344 302.718 C 259.094 300.609,258.323 299.275,256.800 296.588 C 256.360 295.811,256.000 294.911,256.000 294.588 C 256.000 293.823,254.910 293.833,254.139 294.604 C 253.807 294.936,253.370 295.105,253.168 294.980 C 252.965 294.855,252.799 294.898,252.797 295.076 C 252.795 295.254,252.390 295.598,251.897 295.840 C 251.404 296.083,250.280 296.647,249.400 297.095 C 248.520 297.542,246.540 298.514,245.000 299.253 C 243.460 299.992,242.140 300.732,242.067 300.898 C 241.993 301.064,241.408 301.200,240.767 301.200 C 240.125 301.200,239.600 301.380,239.600 301.600 C 239.600 301.820,239.161 302.000,238.624 302.000 C 238.087 302.000,237.536 302.180,237.400 302.400 C 237.264 302.620,236.803 302.800,236.376 302.800 C 235.949 302.800,235.600 302.980,235.600 303.200 C 235.600 303.420,234.970 303.600,234.200 303.600 C 233.430 303.600,232.800 303.780,232.800 304.000 C 232.800 304.220,232.271 304.400,231.624 304.400 C 230.977 304.400,230.336 304.580,230.200 304.800 C 230.064 305.020,229.423 305.200,228.776 305.200 C 228.129 305.200,227.600 305.380,227.600 305.600 C 227.600 305.820,226.970 306.000,226.200 306.000 C 225.430 306.000,224.800 306.180,224.800 306.400 C 224.800 306.620,223.900 306.800,222.800 306.800 C 221.700 306.800,220.800 306.980,220.800 307.200 C 220.800 307.422,219.733 307.600,218.400 307.600 C 217.080 307.600,216.000 307.755,216.000 307.944 C 216.000 308.349,207.917 308.821,200.690 308.836 C 193.349 308.852,183.988 308.344,184.235 307.943 C 184.352 307.754,183.222 307.597,181.724 307.594 C 179.817 307.590,179.180 307.471,179.600 307.200 C 180.030 306.922,179.603 306.811,178.100 306.806 C 176.945 306.803,176.000 306.620,176.000 306.400 C 176.000 306.180,175.381 306.000,174.624 306.000 C 173.867 306.000,173.136 305.820,173.000 305.600 C 172.864 305.380,172.133 305.200,171.376 305.200 C 170.619 305.200,170.000 305.020,170.000 304.800 C 170.000 304.580,169.460 304.400,168.800 304.400 C 168.140 304.400,167.600 304.220,167.600 304.000 C 167.600 303.780,167.060 303.600,166.400 303.600 C 165.740 303.600,165.200 303.420,165.200 303.200 C 165.200 302.980,164.660 302.800,164.000 302.800 C 163.340 302.800,162.800 302.620,162.800 302.400 C 162.800 302.180,162.440 302.000,162.000 302.000 C 161.560 302.000,161.200 301.820,161.200 301.600 C 161.200 301.380,160.660 301.200,160.000 301.200 C 159.340 301.200,158.800 301.020,158.800 300.800 C 158.800 300.580,158.440 300.400,158.000 300.400 C 157.560 300.400,157.200 300.259,157.200 300.087 C 157.200 299.915,156.390 299.535,155.400 299.243 C 154.410 298.951,153.600 298.552,153.600 298.356 C 153.600 298.160,153.366 298.000,153.080 298.000 C 152.344 298.000,150.407 297.059,150.403 296.700 C 150.401 296.535,150.055 296.400,149.633 296.400 C 149.212 296.400,148.807 296.233,148.733 296.030 C 148.660 295.826,148.337 295.601,148.016 295.530 C 147.694 295.458,147.075 295.085,146.640 294.700 C 146.205 294.315,145.613 294.000,145.325 294.000 C 145.036 294.000,144.800 293.790,144.800 293.533 C 144.800 293.277,144.686 293.181,144.546 293.320 C 144.407 293.460,143.843 293.220,143.292 292.787 C 142.742 292.354,142.129 292.000,141.929 292.000 C 141.730 292.000,141.180 291.640,140.708 291.200 C 140.236 290.760,139.613 290.400,139.325 290.400 C 139.036 290.400,138.800 290.220,138.800 290.000 C 138.800 289.780,138.519 289.600,138.176 289.600 C 137.833 289.600,137.664 289.420,137.800 289.200 C 137.936 288.980,137.801 288.800,137.499 288.800 C 137.198 288.800,136.564 288.440,136.092 288.000 C 135.620 287.560,135.035 287.200,134.793 287.200 C 134.551 287.200,134.464 287.020,134.600 286.800 C 134.736 286.580,134.552 286.400,134.192 286.400 C 133.832 286.400,132.852 285.687,132.015 284.815 C 131.177 283.944,130.255 283.179,129.965 283.115 C 129.256 282.960,116.070 269.875,116.266 269.521 C 116.352 269.368,115.606 268.427,114.611 267.432 C 113.615 266.436,112.800 265.386,112.800 265.099 C 112.800 264.812,112.440 264.317,112.000 264.000 C 111.560 263.683,111.200 263.183,111.200 262.888 C 111.200 262.594,111.020 262.464,110.800 262.600 C 110.580 262.736,110.400 262.543,110.400 262.171 C 110.400 261.798,110.085 261.200,109.700 260.841 C 108.890 260.086,108.445 259.388,106.932 256.500 C 105.481 253.728,105.380 253.745,98.124 257.983 " stroke="none" fill="#11ab41" fill-rule="evenodd"></path><path id="path1" d="M41.200 108.400 C 41.200 108.840,41.020 109.200,40.800 109.200 C 40.580 109.200,40.400 109.470,40.400 109.800 C 40.400 110.130,40.220 110.400,40.000 110.400 C 39.780 110.400,39.600 110.760,39.600 111.200 C 39.600 111.640,39.420 112.000,39.200 112.000 C 38.980 112.000,38.800 112.255,38.800 112.567 C 38.800 112.878,38.657 113.193,38.481 113.267 C 38.107 113.423,36.400 116.994,36.400 117.619 C 36.400 117.855,36.220 117.936,36.000 117.800 C 35.780 117.664,35.600 117.828,35.600 118.164 C 35.600 118.501,35.240 119.417,34.800 120.200 C 34.360 120.983,34.000 121.979,34.000 122.412 C 34.000 122.845,33.820 123.200,33.600 123.200 C 33.380 123.200,33.200 123.560,33.200 124.000 C 33.200 124.440,33.020 124.800,32.800 124.800 C 32.580 124.800,32.400 125.160,32.400 125.600 C 32.400 126.040,32.220 126.400,32.000 126.400 C 31.780 126.400,31.600 126.850,31.600 127.400 C 31.600 127.950,31.420 128.400,31.200 128.400 C 30.980 128.400,30.800 128.760,30.800 129.200 C 30.800 129.640,30.620 130.000,30.400 130.000 C 30.180 130.000,30.000 130.540,30.000 131.200 C 30.000 131.860,29.820 132.400,29.600 132.400 C 29.380 132.400,29.200 132.760,29.200 133.200 C 29.200 133.640,29.020 134.000,28.800 134.000 C 28.580 134.000,28.400 134.540,28.400 135.200 C 28.400 135.860,28.220 136.400,28.000 136.400 C 27.780 136.400,27.600 136.762,27.600 137.205 C 27.600 137.648,27.424 138.323,27.209 138.705 C 26.577 139.827,25.187 144.457,24.929 146.300 C 24.798 147.235,24.536 148.000,24.346 148.000 C 24.156 148.000,24.000 148.720,24.000 149.600 C 24.000 150.480,23.820 151.200,23.600 151.200 C 23.380 151.200,23.200 151.729,23.200 152.376 C 23.200 153.023,23.020 153.664,22.800 153.800 C 22.580 153.936,22.400 154.746,22.400 155.600 C 22.400 156.454,22.220 157.264,22.000 157.400 C 21.780 157.536,21.600 158.256,21.600 159.000 C 21.600 159.744,21.420 160.464,21.200 160.600 C 20.980 160.736,20.800 161.636,20.800 162.600 C 20.800 163.564,20.620 164.464,20.400 164.600 C 20.180 164.736,20.000 165.816,20.000 167.000 C 20.000 168.184,19.820 169.264,19.600 169.400 C 19.380 169.536,19.200 170.807,19.200 172.224 C 19.200 173.675,19.025 174.800,18.800 174.800 C 18.565 174.800,18.400 176.200,18.400 178.200 C 18.400 180.200,18.235 181.600,18.000 181.600 C 17.740 181.600,17.600 187.600,17.600 198.800 C 17.600 210.000,17.740 216.000,18.000 216.000 C 18.235 216.000,18.400 217.392,18.400 219.376 C 18.400 221.233,18.580 222.864,18.800 223.000 C 19.020 223.136,19.200 224.407,19.200 225.824 C 19.200 227.241,19.363 228.400,19.563 228.400 C 19.763 228.400,20.027 229.345,20.150 230.500 C 20.643 235.123,20.894 236.617,21.239 236.980 C 21.437 237.189,21.600 238.044,21.600 238.880 C 21.600 239.716,21.780 240.400,22.000 240.400 C 22.220 240.400,22.400 241.019,22.400 241.776 C 22.400 242.533,22.580 243.264,22.800 243.400 C 23.020 243.536,23.200 244.267,23.200 245.024 C 23.200 245.781,23.380 246.400,23.600 246.400 C 23.820 246.400,24.000 247.120,24.000 248.000 C 24.000 248.880,24.156 249.600,24.346 249.600 C 24.536 249.600,24.797 250.365,24.927 251.300 C 25.203 253.286,27.492 260.425,28.031 260.980 C 28.234 261.189,28.400 261.864,28.400 262.480 C 28.400 263.096,28.547 263.600,28.728 263.600 C 28.908 263.600,29.300 264.500,29.600 265.600 C 29.900 266.700,30.292 267.600,30.472 267.600 C 30.653 267.600,30.800 267.872,30.800 268.205 C 30.800 268.538,30.968 269.123,31.174 269.505 C 31.379 269.887,31.783 270.785,32.071 271.500 C 32.360 272.215,32.731 272.800,32.898 272.800 C 33.064 272.800,33.200 273.053,33.200 273.362 C 33.200 273.847,33.752 275.120,35.250 278.095 C 35.443 278.477,35.600 279.062,35.600 279.395 C 35.600 279.728,35.750 280.000,35.932 280.000 C 36.274 280.000,36.734 280.824,37.664 283.100 C 37.956 283.815,38.331 284.400,38.498 284.400 C 38.664 284.400,38.800 284.670,38.800 285.000 C 38.800 285.330,38.980 285.600,39.200 285.600 C 39.420 285.600,39.600 285.960,39.600 286.400 C 39.600 286.840,39.780 287.200,40.000 287.200 C 40.220 287.200,40.400 287.560,40.400 288.000 C 40.400 288.440,40.580 288.800,40.800 288.800 C 41.020 288.800,41.200 289.070,41.200 289.400 C 41.200 290.065,42.800 290.232,43.420 289.632 C 43.814 289.250,49.352 285.996,53.200 283.885 C 54.410 283.221,55.878 282.345,56.462 281.939 C 57.046 281.533,57.634 281.200,57.770 281.200 C 57.905 281.200,58.687 280.779,59.508 280.264 C 60.329 279.749,61.810 278.869,62.800 278.309 C 64.979 277.077,74.887 271.407,76.700 270.355 C 78.142 269.517,80.104 268.394,82.147 267.237 C 82.887 266.817,84.706 265.737,86.188 264.837 C 87.669 263.937,88.940 263.200,89.011 263.200 C 89.083 263.200,92.563 261.220,96.746 258.800 C 100.929 256.380,104.543 254.400,104.776 254.400 C 105.296 254.400,105.344 252.919,104.830 252.733 C 104.626 252.660,104.401 252.330,104.330 252.000 C 104.258 251.670,104.110 251.310,104.000 251.200 C 103.604 250.804,102.346 248.585,102.129 247.900 C 102.007 247.515,101.748 247.200,101.553 247.200 C 101.359 247.200,101.200 246.840,101.200 246.400 C 101.200 245.960,101.020 245.600,100.800 245.600 C 100.580 245.600,100.400 245.251,100.400 244.824 C 100.400 244.397,100.220 243.936,100.000 243.800 C 99.780 243.664,99.600 243.203,99.600 242.776 C 99.600 242.349,99.420 242.000,99.200 242.000 C 98.980 242.000,98.800 241.640,98.800 241.200 C 98.800 240.760,98.620 240.400,98.400 240.400 C 98.180 240.400,98.000 239.860,98.000 239.200 C 98.000 238.540,97.820 238.000,97.600 238.000 C 97.380 238.000,97.200 237.651,97.200 237.224 C 97.200 236.797,97.020 236.336,96.800 236.200 C 96.580 236.064,96.400 235.513,96.400 234.976 C 96.400 234.439,96.220 234.000,96.000 234.000 C 95.780 234.000,95.600 233.460,95.600 232.800 C 95.600 232.140,95.420 231.600,95.200 231.600 C 94.980 231.600,94.800 231.071,94.800 230.424 C 94.800 229.777,94.620 229.136,94.400 229.000 C 94.180 228.864,94.000 228.234,94.000 227.600 C 94.000 226.966,93.820 226.336,93.600 226.200 C 93.380 226.064,93.200 225.333,93.200 224.576 C 93.200 223.819,93.020 223.200,92.800 223.200 C 92.580 223.200,92.400 222.300,92.400 221.200 C 92.400 220.100,92.246 219.200,92.057 219.200 C 91.869 219.200,91.594 217.625,91.445 215.700 C 91.297 213.775,91.051 211.390,90.897 210.400 C 90.548 208.151,90.528 189.569,90.872 187.400 C 91.011 186.520,91.255 184.135,91.414 182.100 C 91.573 180.065,91.860 178.400,92.052 178.400 C 92.243 178.400,92.400 177.500,92.400 176.400 C 92.400 175.300,92.580 174.400,92.800 174.400 C 93.020 174.400,93.200 173.770,93.200 173.000 C 93.200 172.230,93.380 171.600,93.600 171.600 C 93.820 171.600,94.000 171.071,94.000 170.424 C 94.000 169.777,94.180 169.136,94.400 169.000 C 94.620 168.864,94.800 168.133,94.800 167.376 C 94.800 166.619,94.980 166.000,95.200 166.000 C 95.420 166.000,95.600 165.460,95.600 164.800 C 95.600 164.140,95.780 163.600,96.000 163.600 C 96.220 163.600,96.400 163.251,96.400 162.824 C 96.400 162.397,96.580 161.936,96.800 161.800 C 97.020 161.664,97.200 161.113,97.200 160.576 C 97.200 160.039,97.380 159.600,97.600 159.600 C 97.820 159.600,98.000 159.161,98.000 158.624 C 98.000 158.087,98.180 157.536,98.400 157.400 C 98.620 157.264,98.800 156.818,98.800 156.410 C 98.800 156.001,98.935 155.607,99.100 155.533 C 99.265 155.460,99.826 154.500,100.347 153.400 C 100.868 152.300,101.660 150.680,102.107 149.800 C 102.554 148.920,103.117 147.796,103.360 147.303 C 103.602 146.810,103.935 146.405,104.100 146.403 C 104.265 146.401,104.400 146.040,104.400 145.600 C 104.400 145.160,104.580 144.800,104.800 144.800 C 105.020 144.800,105.200 144.440,105.200 144.000 C 105.200 143.549,104.933 143.200,104.588 143.200 C 104.252 143.200,100.517 141.196,96.288 138.747 C 88.671 134.334,87.312 133.550,84.600 132.000 C 82.395 130.740,81.168 130.034,71.600 124.515 C 66.650 121.660,61.790 118.868,60.800 118.312 C 59.810 117.755,56.750 115.995,54.000 114.400 C 51.250 112.805,48.190 111.044,47.200 110.486 C 46.210 109.929,44.729 109.051,43.908 108.536 C 42.076 107.387,41.200 107.343,41.200 108.400 " stroke="none" fill="#fbd304" fill-rule="evenodd"></path><path id="path2" d="M183.200 16.400 C 183.200 16.635,181.800 16.800,179.800 16.800 C 177.800 16.800,176.400 16.965,176.400 17.200 C 176.400 17.429,175.200 17.600,173.600 17.600 C 172.000 17.600,170.800 17.771,170.800 18.000 C 170.800 18.222,169.733 18.400,168.400 18.400 C 167.067 18.400,166.000 18.578,166.000 18.800 C 166.000 19.020,165.100 19.200,164.000 19.200 C 162.900 19.200,162.000 19.380,162.000 19.600 C 162.000 19.820,161.370 20.000,160.600 20.000 C 159.830 20.000,159.200 20.180,159.200 20.400 C 159.200 20.620,158.401 20.800,157.424 20.800 C 156.447 20.800,155.536 20.980,155.400 21.200 C 155.264 21.420,154.623 21.600,153.976 21.600 C 153.329 21.600,152.800 21.780,152.800 22.000 C 152.800 22.220,152.080 22.400,151.200 22.400 C 150.320 22.400,149.600 22.580,149.600 22.800 C 149.600 23.020,149.060 23.200,148.400 23.200 C 147.740 23.200,147.200 23.380,147.200 23.600 C 147.200 23.820,146.570 24.000,145.800 24.000 C 145.030 24.000,144.400 24.180,144.400 24.400 C 144.400 24.620,144.011 24.800,143.535 24.800 C 142.420 24.800,138.241 26.095,138.067 26.494 C 137.993 26.662,137.408 26.800,136.767 26.800 C 136.125 26.800,135.600 26.980,135.600 27.200 C 135.600 27.420,135.161 27.600,134.624 27.600 C 134.087 27.600,133.536 27.780,133.400 28.000 C 133.264 28.220,132.803 28.400,132.376 28.400 C 131.949 28.400,131.600 28.580,131.600 28.800 C 131.600 29.020,131.265 29.200,130.856 29.200 C 130.208 29.200,125.344 31.446,124.800 31.998 C 124.690 32.109,124.150 32.262,123.600 32.338 C 123.050 32.414,122.540 32.639,122.467 32.838 C 122.393 33.037,121.988 33.200,121.567 33.200 C 121.145 33.200,120.800 33.380,120.800 33.600 C 120.800 33.820,120.440 34.000,120.000 34.000 C 119.560 34.000,119.200 34.180,119.200 34.400 C 119.200 34.620,118.840 34.800,118.400 34.800 C 117.960 34.800,117.600 34.980,117.600 35.200 C 117.600 35.420,117.240 35.600,116.800 35.600 C 116.360 35.600,116.000 35.780,116.000 36.000 C 116.000 36.220,115.640 36.400,115.200 36.400 C 114.760 36.400,114.400 36.559,114.400 36.753 C 114.400 36.948,114.085 37.207,113.700 37.329 C 113.013 37.546,110.794 38.805,110.400 39.201 C 110.290 39.311,109.660 39.671,109.000 40.001 C 108.340 40.330,107.561 40.826,107.269 41.102 C 106.978 41.378,105.853 41.985,104.769 42.451 C 103.686 42.917,102.800 43.456,102.800 43.649 C 102.800 43.842,102.480 44.000,102.088 44.000 C 101.697 44.000,101.117 44.360,100.800 44.800 C 100.483 45.240,99.943 45.600,99.600 45.600 C 99.257 45.600,98.717 45.960,98.400 46.400 C 98.083 46.840,97.543 47.200,97.200 47.200 C 96.857 47.200,96.317 47.560,96.000 48.000 C 95.683 48.440,95.238 48.803,95.012 48.807 C 94.579 48.815,92.892 50.115,90.479 52.300 C 89.690 53.015,88.881 53.600,88.682 53.600 C 88.484 53.600,87.817 54.140,87.200 54.800 C 86.583 55.460,85.863 56.000,85.600 56.000 C 85.337 56.000,84.644 56.503,84.060 57.117 C 83.477 57.731,82.280 58.759,81.400 59.400 C 79.600 60.712,62.384 77.893,60.734 80.023 C 60.148 80.780,59.203 81.940,58.634 82.600 C 58.066 83.260,57.601 83.953,57.600 84.140 C 57.600 84.326,57.060 84.983,56.400 85.600 C 55.740 86.217,55.200 86.937,55.200 87.200 C 55.200 87.463,54.660 88.183,54.000 88.800 C 53.340 89.417,52.800 90.137,52.800 90.400 C 52.800 90.663,52.260 91.383,51.600 92.000 C 50.940 92.617,50.400 93.236,50.400 93.377 C 50.400 93.518,50.040 94.020,49.600 94.492 C 49.160 94.964,48.800 95.587,48.800 95.875 C 48.800 96.164,48.620 96.400,48.400 96.400 C 48.180 96.400,48.000 96.625,47.999 96.900 C 47.999 97.175,47.459 98.030,46.800 98.800 C 46.141 99.570,45.601 100.425,45.601 100.700 C 45.600 100.975,45.441 101.200,45.247 101.200 C 45.052 101.200,44.793 101.515,44.671 101.900 C 44.415 102.710,43.126 104.904,42.732 105.204 C 41.028 106.499,41.883 107.465,47.600 110.707 C 48.370 111.144,51.250 112.806,54.000 114.400 C 56.750 115.995,59.810 117.755,60.800 118.312 C 61.790 118.868,66.650 121.660,71.600 124.515 C 81.168 130.034,82.395 130.740,84.600 132.000 C 87.312 133.550,88.671 134.334,96.288 138.747 C 104.608 143.566,105.617 143.890,106.400 142.000 C 106.673 141.340,107.036 140.800,107.205 140.800 C 107.375 140.800,107.626 140.350,107.764 139.800 C 107.902 139.250,108.192 138.800,108.408 138.800 C 108.623 138.800,108.800 138.528,108.800 138.196 C 108.800 137.864,109.340 137.028,110.000 136.337 C 110.660 135.646,111.200 134.878,111.200 134.629 C 111.200 134.380,111.560 133.917,112.000 133.600 C 112.440 133.283,112.800 132.779,112.800 132.480 C 112.800 132.182,113.520 131.246,114.400 130.400 C 115.280 129.554,116.000 128.688,116.000 128.474 C 116.000 127.948,129.521 114.400,130.046 114.400 C 130.275 114.400,131.154 113.680,132.000 112.800 C 132.846 111.920,133.749 111.200,134.008 111.200 C 134.267 111.200,134.983 110.660,135.600 110.000 C 136.217 109.340,136.994 108.800,137.327 108.800 C 137.661 108.800,137.993 108.665,138.067 108.500 C 138.216 108.165,141.455 106.000,141.808 106.000 C 141.932 106.000,142.420 105.640,142.892 105.200 C 143.364 104.760,143.987 104.400,144.275 104.400 C 144.564 104.400,144.800 104.220,144.800 104.000 C 144.800 103.780,145.160 103.600,145.600 103.600 C 146.040 103.600,146.400 103.442,146.400 103.249 C 146.400 103.055,146.940 102.673,147.600 102.400 C 148.260 102.127,148.800 101.745,148.800 101.551 C 148.800 101.358,149.160 101.200,149.600 101.200 C 150.040 101.200,150.400 101.020,150.400 100.800 C 150.400 100.580,150.760 100.400,151.200 100.400 C 151.640 100.400,152.000 100.220,152.000 100.000 C 152.000 99.780,152.360 99.600,152.800 99.600 C 153.240 99.600,153.600 99.420,153.600 99.200 C 153.600 98.980,153.949 98.800,154.376 98.800 C 154.803 98.800,155.264 98.620,155.400 98.400 C 155.536 98.180,155.997 98.000,156.424 98.000 C 156.851 98.000,157.200 97.820,157.200 97.600 C 157.200 97.380,157.560 97.200,158.000 97.200 C 158.440 97.200,158.800 97.020,158.800 96.800 C 158.800 96.580,159.239 96.400,159.776 96.400 C 160.313 96.400,160.864 96.220,161.000 96.000 C 161.136 95.780,161.597 95.600,162.024 95.600 C 162.451 95.600,162.800 95.420,162.800 95.200 C 162.800 94.980,163.340 94.800,164.000 94.800 C 164.660 94.800,165.200 94.620,165.200 94.400 C 165.200 94.180,165.740 94.000,166.400 94.000 C 167.060 94.000,167.600 93.820,167.600 93.600 C 167.600 93.380,168.140 93.200,168.800 93.200 C 169.460 93.200,170.000 93.020,170.000 92.800 C 170.000 92.580,170.542 92.400,171.205 92.400 C 171.868 92.400,172.723 92.230,173.105 92.022 C 173.756 91.668,177.773 90.948,181.400 90.536 C 182.280 90.436,183.360 90.191,183.800 89.992 C 185.119 89.393,190.053 89.135,200.400 89.121 C 209.488 89.109,212.221 89.297,218.600 90.373 C 219.920 90.595,222.485 90.988,224.300 91.246 C 226.115 91.503,227.600 91.868,227.600 92.057 C 227.600 92.246,228.320 92.400,229.200 92.400 C 230.080 92.400,230.800 92.580,230.800 92.800 C 230.800 93.020,231.340 93.200,232.000 93.200 C 232.660 93.200,233.200 93.380,233.200 93.600 C 233.200 93.820,233.740 94.000,234.400 94.000 C 235.060 94.000,235.600 94.180,235.600 94.400 C 235.600 94.620,236.140 94.800,236.800 94.800 C 237.460 94.800,238.000 94.980,238.000 95.200 C 238.000 95.420,238.349 95.600,238.776 95.600 C 239.203 95.600,239.664 95.780,239.800 96.000 C 239.936 96.220,240.487 96.400,241.024 96.400 C 241.561 96.400,242.000 96.580,242.000 96.800 C 242.000 97.020,242.360 97.200,242.800 97.200 C 243.240 97.200,243.600 97.380,243.600 97.600 C 243.600 97.820,244.050 98.000,244.600 98.000 C 245.150 98.000,245.600 98.180,245.600 98.400 C 245.600 98.620,245.960 98.800,246.400 98.800 C 246.840 98.800,247.200 98.980,247.200 99.200 C 247.200 99.420,247.560 99.600,248.000 99.600 C 248.440 99.600,248.800 99.780,248.800 100.000 C 248.800 100.220,249.160 100.400,249.600 100.400 C 250.040 100.400,250.400 100.580,250.400 100.800 C 250.400 101.020,250.760 101.200,251.200 101.200 C 251.640 101.200,252.000 101.380,252.000 101.600 C 252.000 101.820,252.236 102.000,252.525 102.000 C 252.813 102.000,253.436 102.360,253.908 102.800 C 254.380 103.240,255.044 103.600,255.383 103.600 C 255.722 103.600,256.000 103.780,256.000 104.000 C 256.000 104.220,256.360 104.400,256.800 104.400 C 257.240 104.400,257.602 104.535,257.603 104.700 C 257.605 104.865,258.730 105.718,260.103 106.595 C 261.477 107.473,262.660 108.328,262.733 108.495 C 262.807 108.663,263.172 108.800,263.545 108.800 C 263.918 108.800,264.483 109.160,264.800 109.600 C 265.117 110.040,265.607 110.400,265.888 110.400 C 266.170 110.400,266.400 110.580,266.400 110.800 C 266.400 111.020,266.598 111.200,266.840 111.200 C 267.081 111.200,267.783 111.740,268.400 112.400 C 269.017 113.060,269.769 113.600,270.072 113.600 C 270.375 113.600,270.883 113.960,271.200 114.400 C 271.517 114.840,272.097 115.200,272.488 115.200 C 272.880 115.200,273.200 115.380,273.200 115.600 C 273.200 115.820,273.740 116.000,274.400 116.000 C 275.060 116.000,275.600 116.180,275.600 116.400 C 275.600 116.626,276.733 116.800,278.200 116.800 C 279.667 116.800,280.800 116.626,280.800 116.400 C 280.800 116.180,281.520 116.000,282.400 116.000 C 283.280 116.000,284.000 115.820,284.000 115.600 C 284.000 115.380,284.266 115.200,284.591 115.200 C 285.368 115.200,323.200 77.376,323.200 76.599 C 323.200 76.269,323.341 76.000,323.513 76.000 C 325.007 76.000,325.120 67.805,323.669 64.701 C 322.602 62.418,317.917 57.600,316.766 57.600 C 316.530 57.600,315.646 56.880,314.800 56.000 C 313.954 55.120,313.069 54.400,312.832 54.400 C 312.595 54.400,311.659 53.680,310.752 52.800 C 309.845 51.920,308.899 51.200,308.648 51.200 C 308.397 51.200,307.968 50.840,307.693 50.400 C 307.418 49.960,306.964 49.600,306.685 49.600 C 306.405 49.600,305.917 49.240,305.600 48.800 C 305.283 48.360,304.791 48.000,304.508 48.000 C 304.225 48.000,303.428 47.460,302.737 46.800 C 302.046 46.140,301.238 45.600,300.941 45.600 C 300.643 45.600,300.400 45.420,300.400 45.200 C 300.400 44.980,300.080 44.800,299.688 44.800 C 299.297 44.800,298.717 44.440,298.400 44.000 C 298.083 43.560,297.503 43.200,297.112 43.200 C 296.720 43.200,296.400 43.055,296.400 42.877 C 296.400 42.546,293.634 41.200,292.954 41.200 C 292.746 41.200,292.317 40.840,292.000 40.400 C 291.683 39.960,291.193 39.600,290.912 39.600 C 290.630 39.600,290.400 39.420,290.400 39.200 C 290.400 38.980,290.040 38.800,289.600 38.800 C 289.160 38.800,288.800 38.620,288.800 38.400 C 288.800 38.180,288.440 38.000,288.000 38.000 C 287.560 38.000,287.200 37.820,287.200 37.600 C 287.200 37.380,286.840 37.200,286.400 37.200 C 285.960 37.200,285.599 37.065,285.597 36.900 C 285.595 36.735,285.190 36.401,284.697 36.159 C 284.204 35.916,282.747 35.151,281.459 34.459 C 280.172 33.766,278.777 33.200,278.359 33.200 C 277.942 33.200,277.600 33.020,277.600 32.800 C 277.600 32.580,277.240 32.400,276.800 32.400 C 276.360 32.400,276.000 32.220,276.000 32.000 C 276.000 31.780,275.640 31.600,275.200 31.600 C 274.760 31.600,274.399 31.465,274.397 31.300 C 274.393 30.894,272.414 30.000,271.520 30.000 C 271.124 30.000,270.800 29.820,270.800 29.600 C 270.800 29.380,270.440 29.200,270.000 29.200 C 269.560 29.200,269.200 29.020,269.200 28.800 C 269.200 28.580,268.660 28.400,268.000 28.400 C 267.340 28.400,266.800 28.220,266.800 28.000 C 266.800 27.780,266.451 27.600,266.024 27.600 C 265.597 27.600,265.136 27.420,265.000 27.200 C 264.864 26.980,264.313 26.800,263.776 26.800 C 263.239 26.800,262.800 26.620,262.800 26.400 C 262.800 26.180,262.371 26.000,261.846 26.000 C 261.321 26.000,260.376 25.731,259.746 25.402 C 259.116 25.074,258.015 24.804,257.300 24.802 C 256.585 24.801,256.000 24.620,256.000 24.400 C 256.000 24.180,255.460 24.000,254.800 24.000 C 254.140 24.000,253.600 23.820,253.600 23.600 C 253.600 23.380,253.060 23.200,252.400 23.200 C 251.740 23.200,251.200 23.020,251.200 22.800 C 251.200 22.580,250.480 22.400,249.600 22.400 C 248.720 22.400,248.000 22.220,248.000 22.000 C 248.000 21.780,247.280 21.600,246.400 21.600 C 245.520 21.600,244.800 21.420,244.800 21.200 C 244.800 20.980,244.080 20.800,243.200 20.800 C 242.320 20.800,241.600 20.620,241.600 20.400 C 241.600 20.180,240.880 20.000,240.000 20.000 C 239.120 20.000,238.400 19.820,238.400 19.600 C 238.400 19.380,237.590 19.200,236.600 19.200 C 235.610 19.200,234.800 19.020,234.800 18.800 C 234.800 18.578,233.733 18.400,232.400 18.400 C 231.067 18.400,230.000 18.222,230.000 18.000 C 230.000 17.771,228.800 17.600,227.200 17.600 C 225.600 17.600,224.400 17.429,224.400 17.200 C 224.400 16.965,223.000 16.800,221.000 16.800 C 219.000 16.800,217.600 16.635,217.600 16.400 C 217.600 16.140,211.600 16.000,200.400 16.000 C 189.200 16.000,183.200 16.140,183.200 16.400 " stroke="none" fill="#ee4524" fill-rule="evenodd"></path><path id="path3" d="M218.400 166.398 C 218.400 166.619,217.695 166.800,216.833 166.800 C 215.972 166.800,215.207 166.935,215.133 167.100 C 215.060 167.265,214.150 167.831,213.112 168.357 C 212.073 168.883,211.319 169.468,211.435 169.657 C 211.552 169.846,211.388 170.000,211.070 170.000 C 210.753 170.000,210.387 170.315,210.258 170.700 C 210.128 171.085,209.657 172.027,209.211 172.794 C 208.765 173.560,208.400 174.585,208.400 175.070 C 208.400 175.556,208.220 176.064,208.000 176.200 C 207.497 176.511,207.444 229.200,207.947 229.200 C 208.138 229.200,208.392 229.927,208.511 230.816 C 208.755 232.634,211.616 236.774,212.851 237.098 C 213.263 237.205,213.600 237.452,213.600 237.647 C 213.600 237.841,213.960 238.000,214.400 238.000 C 214.840 238.000,215.200 238.160,215.200 238.356 C 215.200 239.205,220.438 239.333,260.500 239.467 C 288.082 239.558,302.800 239.745,302.800 240.004 C 302.800 240.222,302.620 240.400,302.400 240.400 C 302.180 240.400,302.000 240.665,302.000 240.988 C 302.000 241.311,301.640 242.217,301.200 243.000 C 300.760 243.783,300.400 244.689,300.400 245.012 C 300.400 245.335,300.220 245.600,300.000 245.600 C 299.780 245.600,299.600 245.960,299.600 246.400 C 299.600 246.840,299.420 247.200,299.200 247.200 C 298.980 247.200,298.800 247.560,298.800 248.000 C 298.800 248.440,298.620 248.800,298.400 248.800 C 298.180 248.800,298.000 249.160,298.000 249.600 C 298.000 250.040,297.842 250.400,297.649 250.400 C 297.455 250.400,297.073 250.940,296.800 251.600 C 296.527 252.260,296.145 252.800,295.951 252.800 C 295.758 252.800,295.600 253.160,295.600 253.600 C 295.600 254.040,295.420 254.400,295.200 254.400 C 294.980 254.400,294.800 254.678,294.800 255.017 C 294.800 255.356,294.440 256.020,294.000 256.492 C 293.560 256.964,293.200 257.587,293.200 257.875 C 293.200 258.164,293.032 258.400,292.827 258.400 C 292.622 258.400,292.326 258.805,292.170 259.300 C 292.013 259.795,291.551 260.491,291.143 260.847 C 290.734 261.203,290.400 261.699,290.400 261.951 C 290.400 262.202,289.860 262.972,289.200 263.663 C 288.540 264.354,288.000 265.072,288.000 265.259 C 288.000 265.446,287.280 266.341,286.400 267.248 C 285.520 268.155,284.800 269.059,284.800 269.258 C 284.800 269.733,271.336 283.200,270.861 283.200 C 270.661 283.200,269.755 283.920,268.848 284.800 C 267.941 285.680,267.002 286.400,266.760 286.400 C 266.519 286.400,265.817 286.940,265.200 287.600 C 264.583 288.260,263.831 288.800,263.528 288.800 C 263.225 288.800,262.717 289.160,262.400 289.600 C 262.083 290.040,261.627 290.400,261.387 290.400 C 261.147 290.400,260.602 290.716,260.175 291.101 C 259.749 291.487,258.637 292.162,257.705 292.601 C 256.772 293.041,256.007 293.556,256.005 293.746 C 256.000 294.096,258.023 298.032,258.397 298.400 C 258.509 298.510,258.842 299.030,259.138 299.555 C 259.433 300.080,260.044 301.160,260.494 301.955 C 260.945 302.750,261.720 304.120,262.217 305.000 C 262.714 305.880,264.421 308.850,266.010 311.600 C 270.882 320.032,271.261 320.690,272.847 323.500 C 273.313 324.325,273.994 325.450,274.361 326.000 C 274.728 326.550,275.287 327.540,275.602 328.200 C 275.918 328.860,276.676 330.152,277.288 331.072 C 277.899 331.992,278.400 332.823,278.400 332.920 C 278.400 333.017,279.570 335.109,281.000 337.570 C 282.430 340.030,283.600 342.105,283.600 342.181 C 283.600 342.256,284.337 343.531,285.237 345.012 C 286.137 346.494,287.217 348.313,287.637 349.053 C 288.057 349.794,288.760 351.030,289.200 351.800 C 289.640 352.570,290.369 353.852,290.821 354.650 C 292.132 356.965,294.000 357.968,294.000 356.357 C 294.000 356.161,294.360 356.000,294.800 356.000 C 295.240 356.000,295.600 355.820,295.600 355.600 C 295.600 355.380,295.836 355.200,296.125 355.200 C 296.413 355.200,297.036 354.840,297.508 354.400 C 297.980 353.960,298.604 353.600,298.895 353.600 C 299.186 353.600,299.683 353.240,300.000 352.800 C 300.317 352.360,300.897 352.000,301.288 352.000 C 301.680 352.000,302.000 351.850,302.000 351.668 C 302.000 351.485,302.495 351.081,303.100 350.770 C 303.705 350.460,304.470 349.933,304.800 349.600 C 305.130 349.267,305.895 348.740,306.500 348.430 C 307.105 348.119,307.600 347.715,307.600 347.532 C 307.600 347.350,307.798 347.200,308.040 347.200 C 308.281 347.200,308.983 346.660,309.600 346.000 C 310.217 345.340,310.937 344.800,311.200 344.800 C 311.463 344.800,312.183 344.260,312.800 343.600 C 313.417 342.940,314.117 342.400,314.357 342.400 C 314.736 342.400,315.627 341.745,317.353 340.200 C 317.599 339.980,318.494 339.282,319.341 338.648 C 320.189 338.014,321.669 336.709,322.631 335.748 C 323.592 334.787,324.467 334.000,324.574 334.000 C 324.878 334.000,337.167 321.579,339.400 319.014 C 340.500 317.750,341.625 316.478,341.900 316.187 C 342.175 315.895,342.400 315.486,342.400 315.277 C 342.400 315.068,343.120 314.155,344.000 313.248 C 344.880 312.341,345.600 311.454,345.600 311.278 C 345.600 311.101,346.185 310.310,346.900 309.521 C 349.085 307.108,350.385 305.421,350.393 304.988 C 350.397 304.762,350.760 304.317,351.200 304.000 C 351.640 303.683,352.000 303.231,352.000 302.997 C 352.000 302.762,352.533 301.947,353.184 301.185 C 353.835 300.423,354.375 299.575,354.384 299.300 C 354.393 299.025,354.580 298.800,354.800 298.800 C 355.020 298.800,355.200 298.564,355.200 298.275 C 355.200 297.987,355.560 297.364,356.000 296.892 C 356.440 296.420,356.800 295.833,356.800 295.588 C 356.800 295.343,357.070 294.873,357.400 294.543 C 357.730 294.213,358.000 293.596,358.000 293.171 C 358.000 292.747,358.180 292.400,358.400 292.400 C 358.620 292.400,358.800 292.029,358.800 291.576 C 358.800 291.123,358.980 290.864,359.200 291.000 C 359.420 291.136,359.600 291.001,359.600 290.699 C 359.600 290.398,359.960 289.764,360.400 289.292 C 360.840 288.820,361.200 288.156,361.200 287.817 C 361.200 287.478,361.380 287.200,361.600 287.200 C 361.820 287.200,362.000 286.840,362.000 286.400 C 362.000 285.960,362.180 285.600,362.400 285.600 C 362.620 285.600,362.800 285.240,362.800 284.800 C 362.800 284.360,362.980 284.000,363.200 284.000 C 363.420 284.000,363.600 283.640,363.600 283.200 C 363.600 282.760,363.735 282.399,363.900 282.397 C 364.259 282.393,365.200 280.456,365.200 279.720 C 365.200 279.434,365.380 279.200,365.600 279.200 C 365.820 279.200,366.000 278.840,366.000 278.400 C 366.000 277.960,366.180 277.600,366.400 277.600 C 366.620 277.600,366.800 277.240,366.800 276.800 C 366.800 276.360,366.980 276.000,367.200 276.000 C 367.420 276.000,367.600 275.640,367.600 275.200 C 367.600 274.760,367.780 274.400,368.000 274.400 C 368.220 274.400,368.400 274.040,368.400 273.600 C 368.400 273.160,368.580 272.800,368.800 272.800 C 369.020 272.800,369.200 272.350,369.200 271.800 C 369.200 271.250,369.380 270.800,369.600 270.800 C 369.820 270.800,370.000 270.451,370.000 270.024 C 370.000 269.597,370.180 269.136,370.400 269.000 C 370.620 268.864,370.800 268.313,370.800 267.776 C 370.800 267.239,370.980 266.800,371.200 266.800 C 371.420 266.800,371.600 266.451,371.600 266.024 C 371.600 265.597,371.780 265.136,372.000 265.000 C 372.220 264.864,372.400 264.313,372.400 263.776 C 372.400 263.239,372.580 262.800,372.800 262.800 C 373.020 262.800,373.200 262.386,373.200 261.880 C 373.200 261.374,373.353 260.789,373.541 260.580 C 373.982 260.087,375.200 255.606,375.200 254.474 C 375.200 253.993,375.380 253.600,375.600 253.600 C 375.820 253.600,376.000 253.060,376.000 252.400 C 376.000 251.740,376.180 251.200,376.400 251.200 C 376.620 251.200,376.800 250.480,376.800 249.600 C 376.800 248.720,376.980 248.000,377.200 248.000 C 377.420 248.000,377.600 247.381,377.600 246.624 C 377.600 245.867,377.780 245.136,378.000 245.000 C 378.220 244.864,378.400 244.043,378.400 243.176 C 378.400 242.309,378.561 241.600,378.758 241.600 C 378.955 241.600,379.229 240.835,379.368 239.900 C 379.506 238.965,379.723 237.480,379.851 236.600 C 379.978 235.720,380.244 234.829,380.441 234.620 C 380.638 234.411,380.800 233.286,380.800 232.120 C 380.800 230.954,380.980 230.000,381.200 230.000 C 381.429 230.000,381.600 228.800,381.600 227.200 C 381.600 225.600,381.771 224.400,382.000 224.400 C 382.235 224.400,382.400 223.008,382.400 221.024 C 382.400 219.167,382.580 217.536,382.800 217.400 C 383.056 217.242,383.200 211.470,383.200 201.400 C 383.200 191.330,383.056 185.558,382.800 185.400 C 382.580 185.264,382.400 183.914,382.400 182.400 C 382.400 180.886,382.220 179.536,382.000 179.400 C 381.780 179.264,381.600 178.353,381.600 177.376 C 381.600 176.399,381.420 175.600,381.200 175.600 C 380.980 175.600,380.800 175.060,380.800 174.400 C 380.800 173.740,380.620 173.200,380.400 173.200 C 380.180 173.200,380.000 172.925,380.000 172.589 C 380.000 171.796,376.604 168.400,375.811 168.400 C 375.475 168.400,375.200 168.241,375.200 168.047 C 375.200 167.642,374.172 167.250,371.600 166.675 C 369.105 166.118,218.400 165.845,218.400 166.398 " stroke="none" fill="#147ce4" fill-rule="evenodd"></path><path id="path4" d="M256.005 294.688 C 256.002 294.956,256.360 295.811,256.800 296.588 C 258.323 299.275,259.094 300.609,260.344 302.718 C 261.035 303.882,261.600 305.007,261.600 305.218 C 261.600 305.428,261.780 305.600,262.000 305.600 C 262.220 305.600,262.400 305.770,262.400 305.977 C 262.400 306.184,263.930 308.990,265.800 312.212 C 267.670 315.433,269.200 318.125,269.200 318.194 C 269.200 318.262,269.937 319.531,270.837 321.012 C 271.737 322.494,272.800 324.288,273.199 324.998 C 273.598 325.709,274.167 326.720,274.462 327.245 C 274.758 327.770,275.090 328.290,275.201 328.400 C 275.311 328.510,275.665 329.140,275.986 329.800 C 276.308 330.460,276.895 331.481,277.290 332.068 C 277.686 332.656,278.519 334.096,279.141 335.268 C 279.764 336.441,281.112 338.810,282.137 340.533 C 283.161 342.256,284.000 343.723,284.000 343.792 C 284.000 343.862,284.720 345.103,285.600 346.552 C 286.480 348.000,287.200 349.291,287.200 349.421 C 287.200 349.550,287.711 350.408,288.335 351.328 C 288.959 352.248,289.723 353.585,290.032 354.300 C 290.342 355.015,290.712 355.600,290.854 355.600 C 290.997 355.600,291.226 356.050,291.364 356.600 C 291.636 357.683,292.400 357.978,292.400 357.000 C 292.400 356.670,292.253 356.400,292.074 356.400 C 291.895 356.400,291.383 355.725,290.936 354.900 C 290.489 354.075,289.735 352.725,289.262 351.900 C 288.788 351.075,288.057 349.794,287.637 349.053 C 287.217 348.313,286.137 346.494,285.237 345.012 C 284.337 343.531,283.600 342.256,283.600 342.181 C 283.600 342.105,282.430 340.030,281.000 337.570 C 279.570 335.109,278.400 333.017,278.400 332.920 C 278.400 332.823,277.899 331.992,277.288 331.072 C 276.676 330.152,275.918 328.860,275.602 328.200 C 275.287 327.540,274.728 326.550,274.361 326.000 C 273.994 325.450,273.313 324.325,272.847 323.500 C 271.261 320.690,270.882 320.032,266.010 311.600 C 264.421 308.850,262.714 305.880,262.217 305.000 C 261.720 304.120,260.830 302.590,260.239 301.600 C 259.648 300.610,259.062 299.485,258.936 299.100 C 258.810 298.715,258.548 298.400,258.353 298.400 C 258.159 298.400,258.000 298.238,258.000 298.041 C 258.000 297.843,257.552 296.898,257.005 295.941 C 256.457 294.983,256.007 294.420,256.005 294.688 " stroke="none" fill="#14948c" fill-rule="evenodd"></path></g></svg>